<?xml version="1.0" encoding="utf-8"?>
<!-- Generator: Adobe Illustrator 26.3.1, SVG Export Plug-In . SVG Version: 6.00 Build 0)  -->
<svg version="1.1" id="Layer_1" xmlns="http://www.w3.org/2000/svg" xmlns:xlink="http://www.w3.org/1999/xlink" x="0px" y="0px"
	 viewBox="0 0 390 121.2" style="enable-background:new 0 0 390 121.2;" xml:space="preserve">
<style type="text/css">
	.st0{fill:#08415C;}
</style>
<path id="Path_10" class="st0" d="M390,121.2V0c-17.7,0-27,4.6-35.1,8.6C339.8,16,332.6,16,325,16s-14.8,0-29.9-7.4
	C287,4.6,277.7,0,260,0s-27,4.6-35.1,8.6C209.8,16,202.6,16,195,16s-14.8,0-29.9-7.4C157,4.6,147.7,0,130,0s-27,4.6-35.1,8.6
	C79.8,16,72.6,16,65,16s-14.8,0-29.9-7.4C27,4.6,17.7,0,0,0v121.2H390z"/>
</svg>
