<svg xmlns="http://www.w3.org/2000/svg" width="216.226" height="29.295" viewBox="0 0 216.226 29.295">
  <g id="Group_37" data-name="Group 37" transform="translate(-20 -20.111)">
    <text id="Escape_Venture" data-name="Escape Venture" transform="translate(54.226 43.111)" fill="#ffd131" font-size="24" font-family="FredokaOne-Regular, Fredoka One"><tspan x="0" y="0">Escape Venture</tspan></text>
    <g id="logo-01" transform="translate(11.253 15.394)">
      <path id="Path_23" data-name="Path 23" d="M16.562,28.3l-4.548-4.548a11.152,11.152,0,0,1,0-15.77h0a11.152,11.152,0,0,1,15.77,0h0a11.152,11.152,0,0,1,0,15.77L23.235,28.3A4.72,4.72,0,0,1,16.562,28.3Z" fill="#fcf6f0"/>
      <path id="Path_24" data-name="Path 24" d="M59.519,167.615l.288.7a1.247,1.247,0,0,0,1.149.78h2.85a1.247,1.247,0,0,0,1.149-.78l.288-.7a1.28,1.28,0,0,0-1.149-1.785H60.668A1.282,1.282,0,0,0,59.519,167.615Z" transform="translate(-42.484 -135.08)" fill="#fcf6f0"/>
    </g>
  </g>
</svg>
