<?xml version="1.0" encoding="utf-8"?>
<!-- Generator: Adobe Illustrator 26.3.1, SVG Export Plug-In . SVG Version: 6.00 Build 0)  -->
<svg version="1.1" id="Layer_1" xmlns="http://www.w3.org/2000/svg" xmlns:xlink="http://www.w3.org/1999/xlink" x="0px" y="0px"
	 viewBox="0 0 390 220.6" style="enable-background:new 0 0 390 220.6;" xml:space="preserve">
<style type="text/css">
	.st0{fill:#08415C;}
</style>
<path id="Path_28" class="st0" d="M0,0v220.6c17.7,0,27-3.8,35.1-7.2c15.1-6.2,22.3-6.2,29.9-6.2s14.8,0,29.9,6.2
	c8.2,3.4,17.4,7.2,35.1,7.2s27-3.8,35.1-7.2c15.1-6.2,22.3-6.2,29.9-6.2s14.8,0,29.9,6.2c8.2,3.4,17.4,7.2,35.1,7.2
	c17.7,0,27-3.8,35.1-7.2c15.1-6.2,22.3-6.2,29.9-6.2c7.6,0,14.8,0,29.9,6.2c8.2,3.4,17.4,7.2,35.1,7.2V0L0,0z"/>
</svg>
